<svg width="100%" viewBox="0 0 680 750" xmlns="http://www.w3.org/2000/svg">
  <defs>
    <clipPath id="hexclip">
      <polygon points="340,83 609,238 609,548 340,703 71,548 71,238"/>
    </clipPath>
  </defs>

  <!-- Hex background -->
  <polygon points="340,83 609,238 609,548 340,703 71,548 71,238" fill="#243b55"/>
  <polygon points="340,93 601,244 601,542 340,693 79,542 79,244"
    fill="none" stroke="#ffffff" stroke-width="1.5" opacity="0.95"/>

  <!-- Axes -->
  <polygon points="597,393 589,389 589,397" fill="#ffffff" opacity="0.75"/>
  <polygon points="83,393 91,389 91,397" fill="#ffffff" opacity="0.75"/>
  <polygon points="340,95 336,103 344,103" fill="#ffffff" opacity="0.75"/>
  <polygon points="340,691 336,683 344,683" fill="#ffffff" opacity="0.75"/>
  <line x1="83" y1="393" x2="597" y2="393" stroke="#ffffff" stroke-width="1.5" opacity="0.45"/>
  <line x1="340" y1="95" x2="340" y2="691" stroke="#ffffff" stroke-width="1.5" opacity="0.45"/>

  <!-- Q1 TOP-LEFT — TEAL -->
  <line x1="178" y1="238" x2="245" y2="248" stroke="#1D9E75" stroke-width="1.5" opacity="0.85"/>
  <line x1="245" y1="248" x2="258" y2="308" stroke="#1D9E75" stroke-width="1.5" opacity="0.85"/>
  <line x1="258" y1="308" x2="192" y2="318" stroke="#1D9E75" stroke-width="1.5" opacity="0.85"/>
  <line x1="192" y1="318" x2="178" y2="238" stroke="#1D9E75" stroke-width="1.5" opacity="0.85"/>
  <line x1="178" y1="238" x2="258" y2="308" stroke="#1D9E75" stroke-width="1.1" opacity="0.55"/>
  <line x1="245" y1="248" x2="192" y2="318" stroke="#1D9E75" stroke-width="1.1" opacity="0.55"/>
  <line x1="245" y1="248" x2="290" y2="278" stroke="#1D9E75" stroke-width="1.3" opacity="0.72"/>
  <line x1="258" y1="308" x2="290" y2="278" stroke="#1D9E75" stroke-width="1.3" opacity="0.72"/>
  <circle cx="178" cy="238" r="7.5" fill="#1D9E75" opacity="0.95"/>
  <circle cx="245" cy="248" r="9"   fill="#1D9E75" opacity="0.95"/>
  <circle cx="258" cy="308" r="7"   fill="#0F6E56" opacity="0.92"/>
  <circle cx="192" cy="318" r="8"   fill="#1D9E75" opacity="0.92"/>
  <circle cx="290" cy="278" r="5.5" fill="#5DCAA5" opacity="0.82"/>

  <!-- Q2 TOP-RIGHT — AMBER -->
  <line x1="370" y1="212" x2="428" y2="228" stroke="#BA7517" stroke-width="1.5" opacity="0.85"/>
  <line x1="428" y1="228" x2="492" y2="248" stroke="#BA7517" stroke-width="1.5" opacity="0.85"/>
  <line x1="492" y1="248" x2="510" y2="308" stroke="#BA7517" stroke-width="1.5" opacity="0.85"/>
  <line x1="428" y1="228" x2="470" y2="298" stroke="#BA7517" stroke-width="1.5" opacity="0.85"/>
  <line x1="492" y1="248" x2="470" y2="298" stroke="#BA7517" stroke-width="1.3" opacity="0.65"/>
  <line x1="510" y1="308" x2="470" y2="298" stroke="#BA7517" stroke-width="1.3" opacity="0.65"/>
  <line x1="370" y1="212" x2="392" y2="266" stroke="#BA7517" stroke-width="1.3" opacity="0.65"/>
  <line x1="428" y1="228" x2="392" y2="266" stroke="#BA7517" stroke-width="1.1" opacity="0.5"/>
  <line x1="370" y1="212" x2="492" y2="248" stroke="#BA7517" stroke-width="0.9" opacity="0.38"/>
  <circle cx="370" cy="212" r="6"   fill="#EF9F27" opacity="0.88"/>
  <circle cx="428" cy="228" r="9"   fill="#BA7517" opacity="0.95"/>
  <circle cx="492" cy="248" r="7"   fill="#EF9F27" opacity="0.9"/>
  <circle cx="510" cy="308" r="6.5" fill="#BA7517" opacity="0.9"/>
  <circle cx="470" cy="298" r="8"   fill="#EF9F27" opacity="0.92"/>
  <circle cx="392" cy="266" r="5"   fill="#FAC775" opacity="0.78"/>

  <!-- Q3 BOTTOM-LEFT — PURPLE -->
  <line x1="222" y1="496" x2="170" y2="450" stroke="#7F77DD" stroke-width="1.5" opacity="0.85"/>
  <line x1="222" y1="496" x2="160" y2="510" stroke="#7F77DD" stroke-width="1.5" opacity="0.85"/>
  <line x1="222" y1="496" x2="188" y2="556" stroke="#7F77DD" stroke-width="1.5" opacity="0.85"/>
  <line x1="222" y1="496" x2="272" y2="546" stroke="#7F77DD" stroke-width="1.5" opacity="0.85"/>
  <line x1="222" y1="496" x2="278" y2="458" stroke="#7F77DD" stroke-width="1.5" opacity="0.85"/>
  <line x1="170" y1="450" x2="278" y2="458" stroke="#7F77DD" stroke-width="1.1" opacity="0.52"/>
  <line x1="188" y1="556" x2="272" y2="546" stroke="#7F77DD" stroke-width="1.1" opacity="0.52"/>
  <line x1="160" y1="510" x2="188" y2="556" stroke="#7F77DD" stroke-width="0.9" opacity="0.4"/>
  <circle cx="222" cy="496" r="11"  fill="#534AB7" opacity="0.97"/>
  <circle cx="170" cy="450" r="6"   fill="#7F77DD" opacity="0.9"/>
  <circle cx="160" cy="510" r="5"   fill="#AFA9EC" opacity="0.82"/>
  <circle cx="188" cy="556" r="6.5" fill="#7F77DD" opacity="0.9"/>
  <circle cx="272" cy="546" r="5.5" fill="#AFA9EC" opacity="0.85"/>
  <circle cx="278" cy="458" r="5"   fill="#CECBF6" opacity="0.75"/>

  <!-- Q4 BOTTOM-RIGHT — CORAL -->
  <line x1="418" y1="456" x2="480" y2="450" stroke="#D85A30" stroke-width="1.5" opacity="0.85"/>
  <line x1="480" y1="450" x2="512" y2="498" stroke="#D85A30" stroke-width="1.5" opacity="0.85"/>
  <line x1="512" y1="498" x2="468" y2="542" stroke="#D85A30" stroke-width="1.5" opacity="0.85"/>
  <line x1="468" y1="542" x2="418" y2="500" stroke="#D85A30" stroke-width="1.5" opacity="0.85"/>
  <line x1="418" y1="456" x2="512" y2="498" stroke="#D85A30" stroke-width="1.1" opacity="0.55"/>
  <line x1="480" y1="450" x2="468" y2="542" stroke="#D85A30" stroke-width="1.1" opacity="0.55"/>
  <line x1="418" y1="456" x2="468" y2="542" stroke="#D85A30" stroke-width="0.9" opacity="0.38"/>
  <line x1="480" y1="450" x2="418" y2="500" stroke="#D85A30" stroke-width="0.9" opacity="0.38"/>
  <line x1="480" y1="450" x2="506" y2="424" stroke="#D85A30" stroke-width="1.3" opacity="0.7"/>
  <line x1="418" y1="456" x2="396" y2="488" stroke="#D85A30" stroke-width="1.3" opacity="0.7"/>
  <line x1="468" y1="542" x2="450" y2="568" stroke="#D85A30" stroke-width="1.3" opacity="0.7"/>
  <line x1="506" y1="424" x2="418" y2="456" stroke="#D85A30" stroke-width="0.9" opacity="0.38"/>
  <circle cx="418" cy="456" r="8"   fill="#D85A30" opacity="0.95"/>
  <circle cx="480" cy="450" r="9"   fill="#993C1D" opacity="0.95"/>
  <circle cx="512" cy="498" r="7"   fill="#D85A30" opacity="0.92"/>
  <circle cx="468" cy="542" r="8.5" fill="#F0997B" opacity="0.92"/>
  <circle cx="418" cy="500" r="6.5" fill="#993C1D" opacity="0.88"/>
  <circle cx="506" cy="424" r="5"   fill="#F5C4B3" opacity="0.78"/>
  <circle cx="396" cy="488" r="4.5" fill="#F0997B" opacity="0.75"/>
  <circle cx="450" cy="568" r="4"   fill="#F5C4B3" opacity="0.7"/>

  <!-- ThemeScope label at origin -->
  <text x="336" y="363" text-anchor="middle" dominant-baseline="central"
    font-family="'Helvetica Neue', Arial, sans-serif"
    font-weight="200" font-size="80" letter-spacing="2"
    fill="#e8f4fb" opacity="0.97">Theme Scope</text>

<!-- R logo bottom -->
<circle cx="340" cy="618" r="42" fill="#ffffff" opacity="0.97"/>
<text x="340" y="619" text-anchor="middle" dominant-baseline="central"
  font-family="'Helvetica Neue', Arial, sans-serif"
  font-weight="400" font-size="58"
  fill="#243b55">R</text>

</svg>